<?xml version="1.0" standalone="no"?>
<!DOCTYPE svg PUBLIC "-//W3C//DTD SVG 1.0//EN" "http://www.w3.org/TR/2001/REC-SVG-20010904/DTD/svg10.dtd">
<svg xmlns="http://www.w3.org/2000/svg" xmlns:xlink="http://www.w3.org/1999/xlink" id="body_1" width="3600" height="2832">

<g transform="matrix(4 0 0 4 0 0)">
	<g transform="matrix(0.1 0 -0 -0.1 0 708)">
        <path d="M801 5002L750 4954L750 3709L751 2465L800 2420L849 2375L2161 2374C 3416 2373 3473 2374 3495 2392C 3508 2402 3521 2410 3525 2410C 3541 2410 3579 2468 3580 2493C 3580 2508 3585 2520 3590 2520C 3604 2520 3604 4877 3590 4885C 3584 4888 3580 4906 3580 4925C 3580 4958 3559 4987 3499 5033C 3477 5049 3401 5050 2164 5050L2164 5050L852 5050L801 5002zM1820 4961C 1820 4946 1801 4938 1782 4945C 1768 4950 1768 4952 1780 4960C 1799 4972 1820 4973 1820 4961zM1874 4928C 1865 4914 1851 4930 1857 4946C 1861 4958 1865 4959 1871 4949C 1875 4942 1876 4932 1874 4928zM2428 4953C 2418 4951 2400 4951 2388 4953C 2375 4955 2383 4957 2405 4957C 2427 4958 2437 4956 2428 4953zM2590 4940C 2590 4929 2588 4920 2587 4920C 2585 4920 2575 4929 2565 4940C 2547 4959 2548 4960 2568 4960C 2583 4960 2590 4954 2590 4940zM2800 4940C 2800 4926 2793 4920 2778 4920C 2758 4920 2757 4921 2775 4940C 2785 4951 2795 4960 2797 4960C 2798 4960 2800 4951 2800 4940zM2654 4898C 2645 4884 2631 4900 2637 4916C 2641 4928 2645 4929 2651 4919C 2655 4912 2656 4902 2654 4898zM2206 4910C 2211 4905 2269 4898 2334 4895C 2414 4891 2460 4884 2474 4874C 2485 4866 2507 4860 2522 4860C 2538 4860 2558 4856 2568 4851C 2606 4830 2654 4810 2665 4810C 2672 4810 2689 4801 2703 4790C 2717 4779 2735 4770 2744 4770C 2753 4770 2760 4766 2760 4761C 2760 4756 2770 4750 2783 4746C 2796 4743 2819 4727 2836 4711C 2852 4694 2871 4680 2878 4680C 2884 4680 2898 4672 2908 4663C 2949 4624 3015 4570 3022 4570C 3026 4570 3030 4564 3030 4557C 3030 4550 3044 4534 3060 4522C 3077 4509 3090 4495 3090 4489C 3090 4484 3104 4466 3120 4450C 3137 4434 3150 4415 3150 4408C 3150 4401 3162 4384 3177 4370C 3191 4357 3207 4333 3212 4318C 3218 4302 3226 4290 3231 4290C 3236 4290 3240 4281 3240 4270C 3240 4259 3249 4242 3260 4233C 3271 4223 3280 4206 3280 4194C 3280 4182 3287 4159 3295 4144C 3303 4128 3310 4107 3310 4098C 3310 4088 3314 4080 3319 4080C 3324 4080 3331 4059 3335 4033C 3339 4006 3346 3980 3351 3974C 3361 3962 3362 3922 3361 3398C 3360 3131 3357 3040 3348 3040C 3342 3040 3329 3033 3321 3025C 3305 3011 3236 3001 3226 3011C 3223 3014 3219 3219 3218 3468C 3215 3805 3211 3923 3202 3932C 3195 3939 3190 3953 3190 3965C 3190 3976 3183 3998 3175 4014C 3167 4029 3160 4057 3160 4075C 3160 4093 3153 4113 3145 4120C 3137 4127 3130 4138 3130 4145C 3130 4152 3121 4169 3110 4183C 3099 4197 3090 4215 3090 4224C 3090 4233 3087 4240 3082 4240C 3078 4240 3066 4256 3055 4276C 3045 4295 3028 4321 3018 4333C 2948 4417 2949 4416 2827 4533C 2805 4553 2781 4570 2774 4570C 2766 4570 2760 4574 2760 4580C 2760 4585 2749 4592 2735 4596C 2721 4599 2710 4606 2710 4610C 2710 4620 2634 4660 2616 4660C 2608 4660 2600 4667 2596 4675C 2593 4684 2578 4690 2562 4690C 2546 4690 2516 4697 2495 4706C 2474 4714 2452 4719 2444 4716C 2437 4713 2424 4717 2417 4725C 2395 4747 2183 4761 2054 4748C 1994 4743 1941 4734 1935 4729C 1930 4724 1915 4720 1900 4720C 1886 4719 1864 4713 1850 4705C 1836 4697 1813 4691 1799 4690C 1785 4690 1765 4683 1754 4675C 1744 4667 1726 4660 1716 4660C 1705 4660 1690 4653 1681 4645C 1662 4626 1532 4540 1523 4540C 1519 4540 1497 4520 1473 4495C 1450 4470 1426 4450 1420 4450C 1415 4450 1410 4446 1410 4442C 1410 4437 1397 4420 1380 4404C 1364 4388 1350 4371 1350 4367C 1350 4362 1337 4345 1320 4328C 1304 4312 1290 4292 1290 4285C 1290 4278 1285 4270 1280 4268C 1274 4266 1268 4254 1265 4240C 1262 4226 1256 4214 1250 4212C 1245 4210 1240 4203 1240 4196C 1240 4188 1232 4172 1222 4159C 1212 4146 1203 4125 1203 4112C 1202 4100 1194 4083 1186 4074C 1177 4066 1170 4047 1170 4034C 1170 4020 1165 3999 1158 3987C 1134 3944 1128 3840 1121 3430L1121 3430L1115 3015L1077 3012C 1049 3010 1035 3014 1026 3026C 1019 3035 1008 3040 1002 3036C 994 3032 990 3036 990 3047C 990 3058 985 3071 979 3077C 966 3090 966 3898 980 3915C 985 3921 992 3946 996 3970C 1003 4023 1022 4084 1044 4125C 1053 4142 1060 4165 1060 4178C 1060 4190 1064 4200 1069 4200C 1074 4200 1082 4210 1085 4223C 1096 4260 1124 4314 1138 4323C 1144 4327 1150 4338 1150 4345C 1150 4353 1154 4360 1160 4360C 1165 4360 1172 4371 1176 4384C 1179 4398 1188 4411 1196 4414C 1204 4417 1210 4425 1210 4433C 1210 4447 1406 4650 1420 4650C 1424 4650 1443 4663 1461 4680C 1480 4696 1498 4710 1502 4710C 1506 4710 1515 4716 1522 4723C 1543 4741 1600 4770 1616 4770C 1624 4770 1633 4776 1636 4784C 1639 4792 1656 4801 1675 4804C 1693 4808 1713 4817 1720 4825C 1727 4833 1743 4840 1756 4840C 1769 4840 1780 4845 1780 4850C 1780 4856 1798 4860 1819 4860C 1841 4860 1865 4866 1872 4873C 1881 4882 1926 4889 2003 4894C 2068 4898 2131 4905 2143 4910C 2173 4922 2194 4922 2206 4910zM3376 4784C 3371 4771 3366 4770 3358 4778C 3352 4784 3350 4796 3354 4806C 3359 4819 3364 4820 3372 4812C 3378 4806 3380 4794 3376 4784zM1447 4758C 1445 4745 1443 4753 1443 4775C 1442 4797 1444 4807 1447 4798C 1449 4788 1449 4770 1447 4758zM2336 4695C 2352 4687 2385 4680 2410 4680C 2435 4680 2464 4673 2474 4665C 2485 4657 2502 4650 2512 4650C 2532 4650 2603 4619 2608 4608C 2610 4603 2619 4600 2629 4600C 2638 4600 2674 4580 2708 4555C 2742 4530 2772 4510 2776 4510C 2792 4510 2840 4453 2840 4434C 2840 4398 2815 4387 2742 4389C 2706 4390 2673 4394 2670 4398C 2667 4402 2648 4414 2627 4424C 2606 4435 2579 4452 2568 4462C 2556 4472 2534 4480 2518 4480C 2503 4480 2490 4484 2490 4490C 2490 4495 2478 4503 2463 4506C 2447 4510 2430 4516 2425 4521C 2419 4525 2383 4532 2345 4536C 2306 4540 2272 4547 2269 4553C 2256 4571 2138 4573 2080 4555C 2050 4546 2004 4536 1977 4533C 1951 4531 1909 4517 1884 4504C 1859 4491 1833 4480 1825 4480C 1808 4480 1732 4442 1725 4429C 1713 4410 1652 4391 1592 4388C 1558 4386 1530 4388 1530 4393C 1530 4397 1523 4400 1515 4400C 1505 4400 1500 4411 1500 4435C 1500 4454 1505 4470 1510 4470C 1516 4470 1544 4489 1573 4511C 1601 4534 1634 4556 1645 4561C 1656 4566 1679 4579 1695 4590C 1712 4601 1732 4612 1740 4615C 1748 4618 1768 4628 1783 4636C 1799 4643 1822 4650 1834 4650C 1846 4650 1865 4657 1876 4665C 1886 4673 1915 4680 1940 4680C 1965 4680 1996 4687 2010 4694C 2047 4715 2297 4715 2336 4695zM3495 4453C 3488 4436 3487 4437 3478 4457C 3472 4469 3471 4487 3475 4497C 3482 4514 3483 4513 3492 4493C 3498 4481 3499 4463 3495 4453zM3370 4443C 3370 4441 3361 4440 3350 4440C 3337 4440 3330 4447 3330 4460C 3330 4479 3331 4479 3350 4463C 3361 4453 3370 4444 3370 4443zM3287 4381C 3320 4365 3332 4340 3307 4340C 3299 4340 3281 4350 3267 4363C 3247 4380 3240 4394 3241 4420C 3242 4455 3242 4455 3249 4426C 3253 4406 3266 4392 3287 4381zM2015 4420C 2019 4414 2010 4410 1996 4410C 1982 4410 1970 4415 1970 4420C 1970 4426 1979 4430 1989 4430C 2000 4430 2012 4426 2015 4420zM1510 4310C 1510 4297 1503 4290 1490 4290C 1471 4290 1471 4291 1488 4309C 1510 4334 1510 4334 1510 4310zM2338 4293C 2328 4291 2310 4291 2298 4293C 2285 4295 2293 4297 2315 4297C 2337 4298 2347 4296 2338 4293zM1311 4158L1290 4136L1290 4158C 1290 4171 1297 4183 1305 4186C 1313 4190 1321 4204 1322 4219C 1323 4241 1324 4240 1327 4213C 1330 4190 1325 4174 1311 4158zM1338 4119C 1336 4113 1330 4109 1325 4109C 1320 4109 1314 4113 1312 4119C 1310 4125 1316 4130 1325 4130C 1334 4130 1340 4125 1338 4119zM3100 4010C 3100 3999 3098 3990 3097 3990C 3095 3990 3085 3999 3075 4010C 3057 4029 3058 4030 3078 4030C 3093 4030 3100 4024 3100 4010zM3003 3947C 3028 3938 3024 3918 2998 3922C 2982 3924 2974 3933 2972 3950C 2970 3964 2973 3970 2977 3964C 2981 3958 2993 3951 3003 3947zM1250 3911C 1250 3888 1236 3870 1219 3870C 1203 3870 1202 3873 1212 3895C 1223 3919 1250 3930 1250 3911zM1390 3847C 1390 3845 1381 3835 1370 3825C 1351 3807 1350 3808 1350 3828C 1350 3843 1356 3850 1370 3850C 1381 3850 1390 3848 1390 3847zM3010 3805C 3010 3797 3001 3781 2990 3770C 2970 3750 2970 3750 2970 3785C 2970 3813 2974 3820 2990 3820C 3001 3820 3010 3813 3010 3805zM1441 3699C 1450 3693 1443 3690 1418 3690C 1382 3690 1381 3691 1398 3708C 1407 3718 1418 3722 1421 3717C 1425 3712 1434 3704 1441 3699zM3020 3695C 3020 3687 3013 3680 3005 3680C 2997 3680 2990 3687 2990 3695C 2990 3703 2997 3710 3005 3710C 3013 3710 3020 3703 3020 3695zM1738 3693C 1728 3691 1710 3691 1698 3693C 1685 3695 1693 3697 1715 3697C 1737 3698 1747 3696 1738 3693zM1707 3490C 1729 3481 1741 3467 1745 3448C 1749 3433 1756 3420 1761 3420C 1766 3420 1770 3254 1770 3013C 1770 2653 1768 2602 1753 2568C 1744 2547 1730 2530 1724 2530C 1717 2530 1707 2523 1702 2514C 1694 2500 1675 2498 1576 2499C 1478 2501 1454 2504 1425 2522C 1403 2534 1390 2550 1390 2563C 1390 2574 1383 2592 1373 2602C 1358 2618 1357 2658 1359 3005C 1361 3315 1364 3396 1376 3418C 1383 3433 1390 3453 1390 3462C 1390 3472 1401 3481 1421 3485C 1438 3489 1449 3497 1447 3503C 1441 3520 1665 3509 1707 3490zM2896 3495C 2979 3453 2975 3473 2976 3050C 2978 2612 2976 2581 2944 2549C 2897 2501 2895 2500 2775 2500C 2673 2500 2656 2503 2626 2522C 2597 2541 2591 2552 2586 2593C 2574 2683 2581 3470 2593 3470C 2600 3470 2626 3480 2651 3493C 2715 3523 2838 3524 2896 3495zM1315 3290C 1326 3272 1321 2729 1310 2714C 1294 2696 1272 2706 1223 2753L1223 2753L1180 2794L1180 3003C 1180 3196 1181 3214 1200 3240C 1211 3256 1234 3271 1250 3275C 1267 3279 1280 3286 1280 3291C 1280 3303 1307 3303 1315 3290zM3092 3278C 3124 3259 3148 3229 3155 3198C 3159 3183 3166 3168 3171 3165C 3184 3157 3183 2840 3170 2840C 3165 2840 3160 2829 3160 2816C 3160 2802 3147 2779 3130 2763C 3073 2709 3068 2706 3051 2717C 3037 2726 3035 2760 3032 2981C 3031 3130 3026 3238 3020 3244C 3014 3250 3010 3262 3010 3272C 3010 3294 3058 3297 3092 3278zM1886 3252C 1892 3248 1890 3239 1879 3229C 1864 3214 1863 3214 1863 3236C 1863 3261 1868 3265 1886 3252zM2467 3168C 2465 3155 2463 3163 2463 3185C 2462 3207 2464 3217 2467 3208C 2469 3198 2469 3180 2467 3168zM1078 2493C 1068 2491 1050 2491 1038 2493C 1025 2495 1033 2497 1055 2497C 1077 2498 1087 2496 1078 2493zM1351 2469C 1361 2463 1359 2460 1343 2460C 1326 2460 1320 2466 1320 2483C 1320 2499 1323 2501 1329 2491C 1334 2484 1344 2474 1351 2469zM1870 2497C 1870 2495 1861 2485 1850 2475C 1831 2457 1830 2458 1830 2478C 1830 2493 1836 2500 1850 2500C 1861 2500 1870 2498 1870 2497zM3070 2480C 3070 2467 3063 2460 3050 2460C 3031 2460 3031 2461 3048 2479C 3070 2504 3070 2504 3070 2480zM3220 2480C 3220 2466 3213 2460 3198 2460C 3178 2460 3177 2461 3195 2480C 3205 2491 3215 2500 3217 2500C 3218 2500 3220 2491 3220 2480zM3378 2473C 3380 2457 3376 2450 3366 2450C 3357 2450 3350 2456 3350 2464C 3350 2488 3328 2494 3313 2475C 3301 2457 3300 2457 3300 2479C 3300 2499 3304 2501 3338 2498C 3368 2496 3376 2491 3378 2473z" stroke="none" fill="#C4C624" fill-rule="nonzero" />
        <path d="M4298 4862C 4288 4860 4280 4854 4280 4849C 4280 4844 4274 4840 4266 4840C 4249 4840 4170 4768 4170 4753C 4170 4747 4165 4740 4158 4738C 4151 4735 4145 4704 4143 4657C 4139 4579 4147 4557 4198 4501C 4221 4477 4281 4439 4289 4445C 4294 4447 4308 4441 4320 4430C 4333 4419 4353 4410 4366 4410C 4378 4410 4390 4405 4392 4399C 4394 4393 4407 4387 4422 4387C 4438 4386 4446 4380 4443 4373C 4440 4365 4446 4360 4459 4360C 4481 4360 4530 4294 4530 4265C 4530 4244 4502 4200 4471 4173C 4445 4150 4370 4140 4370 4159C 4370 4164 4361 4172 4350 4175C 4339 4178 4330 4188 4330 4196C 4330 4204 4323 4213 4315 4216C 4307 4220 4300 4232 4300 4245C 4300 4266 4296 4267 4205 4268C 4120 4270 4110 4268 4110 4252C 4110 4242 4117 4225 4125 4214C 4133 4204 4140 4185 4140 4173C 4140 4148 4233 4050 4256 4050C 4265 4050 4278 4043 4286 4035C 4308 4014 4522 4013 4540 4035C 4546 4043 4561 4052 4572 4056C 4601 4065 4660 4120 4660 4137C 4660 4145 4667 4158 4675 4166C 4698 4190 4695 4309 4670 4358C 4648 4400 4586 4452 4530 4475C 4522 4479 4503 4488 4487 4496C 4472 4504 4455 4508 4450 4505C 4444 4502 4440 4504 4440 4510C 4440 4516 4425 4528 4408 4536C 4342 4567 4335 4573 4316 4612C 4298 4650 4298 4653 4315 4684C 4338 4727 4358 4738 4412 4741C 4462 4744 4496 4720 4502 4678C 4505 4656 4509 4655 4598 4652C 4698 4649 4702 4651 4675 4704C 4667 4719 4660 4740 4660 4749C 4660 4768 4632 4795 4568 4837C 4523 4867 4518 4868 4418 4867C 4361 4867 4307 4865 4298 4862zM4420 4820C 4420 4807 4413 4800 4400 4800C 4381 4800 4381 4801 4398 4819C 4420 4844 4420 4844 4420 4820zM4592 4708C 4573 4689 4560 4710 4578 4731C 4593 4748 4595 4749 4598 4734C 4600 4725 4597 4713 4592 4708zM4305 4120C 4300 4112 4294 4112 4288 4118C 4282 4124 4281 4134 4285 4140C 4290 4148 4296 4148 4302 4142C 4308 4136 4309 4126 4305 4120z" stroke="none" fill="#C4C624" fill-rule="nonzero" />
        <path d="M7323 4863C 7318 4861 7317 4815 7318 4760L7318 4760L7322 4660L7293 4659C 7278 4658 7261 4657 7255 4655C 7250 4654 7237 4652 7226 4652C 7212 4650 7210 4647 7218 4637C 7224 4630 7227 4614 7223 4602C 7216 4574 7235 4550 7264 4550C 7276 4550 7294 4544 7304 4537C 7320 4525 7322 4503 7321 4294C 7321 4168 7320 4056 7318 4045C 7315 4027 7321 4025 7385 4025C 7435 4025 7454 4028 7453 4037C 7451 4044 7450 4156 7449 4287C 7448 4507 7449 4525 7466 4538C 7478 4546 7499 4550 7522 4547C 7563 4542 7567 4548 7566 4615L7566 4615L7565 4655L7510 4658C 7480 4660 7454 4663 7452 4664C 7451 4666 7448 4711 7447 4765L7447 4765L7445 4862L7388 4863C 7356 4864 7327 4864 7323 4863z" stroke="none" fill="#C4C624" fill-rule="nonzero" />
        <path d="M4857 4653C 4844 4650 4841 4643 4846 4632C 4854 4613 4854 4589 4851 4260L4851 4260L4848 4025L4918 4022L4989 4019L4988 4219C 4988 4446 4997 4482 5058 4516C 5104 4541 5171 4539 5198 4512C 5246 4464 5250 4444 5250 4226L5250 4226L5251 4020L5331 4020L5411 4020L5410 4240C 5409 4428 5411 4462 5424 4476C 5433 4484 5440 4496 5440 4501C 5440 4506 5447 4510 5455 4510C 5463 4510 5470 4515 5470 4520C 5470 4526 5494 4530 5524 4530C 5594 4530 5640 4506 5640 4468C 5640 4453 5647 4419 5656 4393C 5669 4355 5672 4314 5669 4185L5669 4185L5665 4025L5735 4025C 5799 4025 5805 4027 5803 4045C 5801 4056 5800 4166 5800 4289C 5799 4477 5797 4519 5783 4549C 5763 4591 5730 4630 5713 4630C 5707 4630 5700 4636 5698 4643C 5695 4651 5665 4655 5594 4655C 5508 4655 5495 4653 5496 4638C 5497 4628 5492 4624 5484 4627C 5477 4629 5455 4616 5435 4596C 5391 4552 5359 4549 5335 4588C 5325 4603 5306 4626 5291 4638C 5267 4660 5257 4661 5180 4658C 5097 4655 5094 4654 5057 4617C 5036 4596 5014 4580 5007 4583C 5000 4585 4993 4602 4990 4621C 4985 4655 4985 4655 4930 4657C 4900 4657 4867 4656 4857 4653zM4957 4248C 4955 4235 4953 4243 4953 4265C 4952 4287 4954 4297 4957 4288C 4959 4278 4959 4260 4957 4248z" stroke="none" fill="#C4C624" fill-rule="nonzero" />
        <path d="M6130 4624C 6073 4587 6010 4515 6010 4487C 6010 4479 6002 4464 5993 4454C 5978 4439 5975 4419 5976 4336C 5976 4270 5981 4235 5988 4232C 5995 4230 6000 4220 6000 4210C 6000 4170 6084 4070 6128 4056C 6139 4052 6154 4043 6160 4035C 6169 4024 6196 4020 6268 4020C 6346 4020 6368 4024 6396 4041C 6415 4052 6430 4068 6430 4076C 6430 4085 6441 4090 6465 4090C 6500 4090 6502 4087 6504 4045C 6505 4027 6512 4025 6575 4025L6575 4025L6644 4025L6642 4075C 6640 4103 6638 4244 6637 4390L6637 4390L6635 4655L6575 4653C 6542 4652 6513 4651 6510 4651C 6507 4650 6505 4635 6505 4618C 6505 4587 6503 4585 6474 4586C 6453 4587 6431 4599 6406 4624L6406 4624L6368 4660L6277 4660C 6189 4660 6183 4659 6130 4624zM6135 4510C 6130 4502 6124 4502 6118 4508C 6112 4514 6111 4524 6115 4530C 6120 4538 6126 4538 6132 4532C 6138 4526 6139 4516 6135 4510zM6380 4520C 6380 4515 6391 4510 6405 4510C 6419 4510 6429 4506 6428 4501C 6426 4496 6436 4479 6450 4464C 6464 4448 6483 4412 6493 4384C 6508 4337 6509 4329 6495 4304C 6487 4288 6480 4269 6480 4262C 6480 4239 6426 4170 6408 4170C 6399 4170 6388 4166 6385 4160C 6376 4145 6242 4148 6224 4163C 6171 4205 6130 4257 6124 4287C 6116 4332 6124 4414 6139 4431C 6183 4483 6206 4506 6224 4517C 6250 4531 6380 4534 6380 4520zM6040 4357C 6040 4355 6031 4345 6020 4335C 6001 4317 6000 4318 6000 4338C 6000 4353 6006 4360 6020 4360C 6031 4360 6040 4358 6040 4357z" stroke="none" fill="#C4C624" fill-rule="nonzero" />
        <path d="M6847 4654C 6843 4650 6840 4505 6840 4333L6840 4333L6840 4019L6913 4022C 6978 4025 6985 4027 6982 4045C 6981 4056 6979 4135 6979 4221C 6978 4380 6990 4457 7016 4467C 7033 4473 7035 4497 7018 4503C 7011 4505 7008 4511 7012 4515C 7016 4519 7025 4518 7033 4512C 7041 4505 7064 4504 7095 4508L7095 4508L7145 4515L7148 4588L7151 4660L7118 4660C 7093 4660 7077 4651 7048 4619C 7003 4570 6977 4570 6970 4619C 6965 4652 6964 4653 6910 4657C 6879 4659 6851 4658 6847 4654zM6928 4313C 6919 4303 6910 4286 6907 4275C 6904 4264 6902 4271 6901 4293C 6900 4325 6903 4330 6922 4330C 6941 4330 6942 4329 6928 4313z" stroke="none" fill="#C4C624" fill-rule="nonzero" />
        <path d="M4860 3140L4860 2731L4940 2731L5020 2732L5022 3053C 5025 3365 5026 3375 5045 3375C 5059 3375 5066 3366 5071 3340C 5075 3321 5083 3304 5089 3302C 5095 3300 5100 3278 5100 3253C 5100 3228 5106 3196 5114 3182C 5132 3149 5160 3058 5160 3033C 5160 3023 5167 3002 5175 2986C 5183 2971 5190 2943 5190 2925C 5190 2906 5196 2885 5203 2878C 5211 2871 5220 2843 5223 2817C 5233 2742 5242 2733 5299 2732C 5356 2730 5365 2738 5375 2800C 5379 2825 5389 2854 5396 2865C 5404 2876 5410 2899 5410 2916C 5410 2933 5417 2961 5425 2976C 5433 2992 5440 3019 5440 3037C 5440 3054 5444 3071 5449 3074C 5454 3078 5461 3099 5465 3123C 5469 3146 5477 3168 5483 3171C 5488 3175 5495 3201 5498 3229C 5500 3257 5509 3285 5516 3291C 5524 3297 5530 3317 5530 3335C 5530 3367 5543 3380 5574 3380C 5592 3380 5610 3337 5600 3319C 5595 3311 5588 3175 5584 3017L5584 3017L5577 2731L5659 2731L5740 2732L5740 3141L5740 3550L5615 3550C 5503 3550 5490 3548 5490 3533C 5489 3515 5460 3424 5448 3405C 5445 3400 5439 3375 5435 3350C 5431 3325 5421 3296 5414 3285C 5406 3274 5400 3250 5400 3230C 5400 3211 5393 3186 5385 3176C 5377 3165 5370 3142 5370 3124C 5370 3106 5365 3090 5359 3088C 5353 3086 5346 3063 5343 3036C 5340 3010 5331 2986 5324 2983C 5305 2976 5260 3010 5260 3032C 5260 3043 5254 3066 5246 3083C 5238 3101 5229 3133 5226 3154C 5223 3176 5217 3196 5212 3199C 5207 3202 5201 3226 5198 3252C 5195 3278 5185 3306 5176 3315C 5167 3324 5160 3347 5160 3365C 5160 3384 5156 3402 5150 3405C 5145 3408 5140 3421 5140 3433C 5140 3445 5133 3468 5125 3484C 5117 3499 5110 3521 5110 3531C 5110 3549 5101 3550 4985 3550L4985 3550L4860 3550L4860 3140zM5710 3470C 5710 3456 5703 3450 5688 3450C 5668 3450 5667 3451 5685 3470C 5695 3481 5705 3490 5707 3490C 5708 3490 5710 3481 5710 3470zM5600 3454C 5600 3437 5578 3440 5572 3458C 5570 3465 5575 3470 5584 3470C 5593 3470 5600 3463 5600 3454zM5690 2855C 5690 2847 5683 2840 5675 2840C 5659 2840 5655 2852 5667 2863C 5678 2875 5690 2871 5690 2855z" stroke="none" fill="#C4C624" fill-rule="nonzero" />
        <path d="M7210 3500L7210 3450L7285 3450L7360 3450L7360 3500L7360 3550L7285 3550L7210 3550L7210 3500z" stroke="none" fill="#C4C624" fill-rule="nonzero" />
        <path d="M7788 3356C 7775 3349 7745 3341 7722 3337C 7698 3334 7664 3320 7645 3306C 7627 3292 7608 3280 7605 3280C 7594 3280 7561 3236 7560 3223C 7560 3216 7556 3210 7551 3210C 7546 3210 7538 3200 7534 3188C 7530 3175 7522 3162 7516 3158C 7500 3147 7501 2918 7518 2913C 7524 2910 7530 2903 7530 2897C 7530 2883 7592 2790 7602 2790C 7606 2790 7621 2779 7636 2765C 7650 2752 7679 2738 7699 2734C 7719 2730 7740 2723 7746 2719C 7770 2700 7847 2697 7881 2714C 7898 2723 7923 2730 7934 2730C 7980 2730 8110 2851 8110 2894C 8110 2920 8109 2920 8038 2920C 7973 2920 7965 2918 7941 2892C 7927 2877 7896 2856 7874 2846C 7834 2829 7831 2829 7779 2847C 7728 2864 7716 2873 7678 2916C 7639 2961 7637 3118 7675 3146C 7683 3152 7690 3160 7690 3164C 7690 3181 7730 3206 7775 3217C 7854 3237 7899 3221 7966 3153C 7984 3133 7998 3130 8060 3130C 8117 3130 8130 3133 8123 3143C 8117 3149 8110 3167 8106 3183C 8103 3198 8095 3210 8090 3210C 8084 3210 8080 3216 8080 3224C 8080 3231 8068 3246 8054 3256C 8040 3266 8023 3280 8016 3285C 7986 3312 7948 3330 7908 3336C 7884 3340 7861 3346 7855 3350C 7832 3366 7811 3368 7788 3356z" stroke="none" fill="#C4C624" fill-rule="nonzero" />
        <path d="M6795 3350C 6792 3345 6776 3340 6761 3340C 6724 3340 6644 3281 6619 3236C 6595 3190 6595 3149 6620 3117C 6631 3103 6640 3088 6640 3083C 6641 3074 6706 3030 6720 3030C 6724 3030 6741 3023 6756 3015C 6772 3007 6795 3000 6807 3000C 6819 3000 6832 2996 6835 2990C 6838 2985 6849 2980 6858 2980C 6892 2979 6928 2935 6931 2891C 6935 2835 6922 2825 6844 2825C 6790 2825 6775 2829 6762 2846C 6750 2860 6731 2867 6695 2868C 6668 2870 6638 2873 6628 2876C 6582 2890 6608 2824 6674 2763C 6693 2745 6715 2730 6723 2730C 6731 2730 6751 2723 6766 2715C 6807 2694 6883 2696 6927 2720C 6948 2731 6970 2740 6976 2740C 6996 2740 7058 2805 7065 2835C 7074 2874 7074 2927 7065 2965C 7056 3000 7016 3045 7001 3036C 6996 3033 6985 3037 6976 3045C 6968 3053 6946 3063 6928 3066C 6891 3072 6865 3082 6803 3113C 6760 3134 6751 3154 6758 3213C 6761 3240 6763 3240 6829 3240C 6889 3240 6898 3237 6903 3221C 6907 3203 6916 3201 6981 3203C 7055 3205 7073 3216 7047 3241C 7040 3249 7031 3263 7027 3273C 7024 3282 7009 3295 6995 3302C 6981 3308 6970 3317 6970 3321C 6970 3326 6947 3332 6920 3336C 6892 3340 6867 3347 6864 3351C 6857 3363 6803 3362 6795 3350z" stroke="none" fill="#C4C624" fill-rule="nonzero" />
        <path d="M5915 3331C 5913 3330 5911 3231 5911 3111C 5910 2937 5913 2889 5925 2866C 5933 2851 5940 2831 5940 2823C 5940 2802 6011 2730 6031 2730C 6040 2730 6061 2723 6076 2715C 6134 2685 6196 2700 6265 2761C 6282 2775 6305 2790 6318 2793C 6339 2798 6341 2795 6338 2767L6338 2767L6335 2735L6403 2735L6470 2735L6473 3033C 6474 3225 6471 3330 6465 3331C 6460 3331 6428 3332 6395 3333L6395 3333L6335 3334L6332 3150C 6330 2974 6328 2962 6304 2913C 6284 2873 6272 2860 6249 2855C 6233 2851 6218 2844 6215 2839C 6206 2825 6177 2828 6139 2847C 6069 2881 6070 2876 6068 3116L6068 3116L6065 3333L5992 3334C 5951 3335 5917 3333 5915 3331zM6395 2921C 6402 2909 6383 2897 6370 2905C 6359 2912 6366 2930 6380 2930C 6385 2930 6391 2926 6395 2921z" stroke="none" fill="#C4C624" fill-rule="nonzero" />
        <path d="M7227 3332C 7212 3329 7210 3301 7210 3029L7210 3029L7210 2730L7285 2730L7360 2730L7357 3032L7355 3333L7299 3334C 7269 3335 7236 3334 7227 3332z" stroke="none" fill="#C4C624" fill-rule="nonzero" />
	</g>
</g>
</svg>